/* XPM */
static char *player2[] = {
"32 32 3 1",
"  c #000000",
". c #FFD700",
"+ c #FF0000",
"                                ",
"                                ",
"                                ",
"                                ",
"              ..                ",
"             ....               ",
"            ......              ",
"           ........             ",
"          ...++++...            ",
"          ..++++++..            ",
"          ..++++++..            ",
"          ...++++...            ",
"           ..++++..             ",
"           ..+..+..             ",
"           ..+..+..             ",
"           ..+..+..             ",
"           ..+..+..             ",
"           ..+..+..             ",
"           ..+..+..             ",
"           ..+..+..             ",
"           ..+..+..             ",
"           ..+....              ",
"           ..+...+              ",
"            ......              ",
"            ......              ",
"           ........             ",
"           ........             ",
"          ..........            ",
"         ............           ",
"                                ",
"                                ",
"                                "};
