/* XPM */
static char * bedrock_xpm[] = {
"30 30 5 1",
". c #141414",
"+ c #282828",
"* c #3c3c3c",
"x c #5a5a5a",
"o c #787878",
"+x+o**ox***+x*xooo+xo*xox.ooxx",
"***.ox*+o.o*+.o+*+o+*o.x+o*+*+",
"++..x*x*+o*..xo+..*...x+++x.oo",
"o*oox+o.o++xoo.*++*o+***.+.x+o",
"x..+++o+o**ox**.+x.*+o+*x+.oo.",
".ox**x.x...**+..ox+xxx+x.o+x+.",
"+*.xx**+o+oxoxx.o.+*x.x+++*x**",
".ooo+*.x*x++x.+..+o.x..*.o+x+*",
"xxx.x*+*.xx*+*.*.*.x*+*+++*..x",
"*+.o+x+xxoo*x*o.*o*+.xxxox*x+.",
"*ox*++xx++*++**.*x*o+***x.x.o+",
"+xoo*xoo+*..x+*ox++.*x.+**xx*x",
"+ox*x.x+*x*x++*xx**ox***o.+*+*",
"*x.*++**xxx+**oo*.*ox.xo.*x*++",
"x+xo.+x++*o+o.*x...xox.+*o*.xx",
"+o++.*.*++*++.*oxo*x*.o*x.*+ox",
".+o..*+o**.ox**o..o.+.ox*.**.+",
".xo.+++o*x+x*.***oxxo**ooo+*ox",
"+.o+++++*xx*+.xx+.**.*.+*.x.*x",
"+.+ox*..+**+.**x*o+*xo++.*++.x",
"ooxxxx...o+x*.o*+oox+xooxxxo+x",
"o+oo+.x+**xx+.+oo*xx*o*+.*.*.*",
"+.****..*x.*xx**ooo.x.xo.**xoo",
"*...x*o.*xxo+*+oo*.x+*x++xxxx*",
".+ox...*+ooo.+o.*ox*x..**xo.oo",
"ooo+x*x*ox+.x+*.*.xoox.*ox*.+*",
"+xo+.+*o*xx*+*ox+.o.*oxo*+.*..",
"+xox+*x*+oox++.x.**o+o.****x*+",
"..x.+x*+*oxx*xxo+*o..**x.****x",
"*.oxx+.oxo.ox..+*oooo.*+ooo.x*",
};