/* XPM */
static char *bed_xpm[] = {
"30 30 5 1",
"  c None",
". c #8B4513",  /* bois */
"# c #FF0000",  /* matelas rouge */
"O c #FFFFFF",  /* oreiller blanc */
"| c #000000",  /* pieds/structure */
"                              ",
"                              ",
"                              ",
"                              ",
"                              ",
"                              ",
"        ..............        ",
"        .############.        ",
"        .############.        ",
"        .############.        ",
"        .############.        ",
"           OOOOOOOO           ",
"           OOOOOOOO           ",
"           OOOOOOOO           ",
"           OOOOOOOO           ",
"           ########           ",
"           ########           ",
"           ########           ",
"           ########           ",
"           ########           ",
"           ######## ||        ",
"           ######## ||        ",
"           ######## ||        ",
"           ######## ||        ",
"           ######## ||        ",
"           ######## ||        ",
"        ||          ||        ",
"        ||          ||        ",
"                              ",
"                              "
};
