/* XPM */
static char *player[] = {
"32 32 3 1",
"  c #FFFFFF",   /* blanc (fond transparent) */
". c #0000FF",   /* bleu (corps) */
"o c #FF0000",   /* rouge (yeux/bouche) */
/* 32 lignes pour 32 pixels de haut */
"                                ",
"                                ",
"                                ",
"                                ",
"                                ",
"           ......               ",
"         ..........             ",
"        ....oooo....            ",
"       ....oooooo....           ",
"       ....oooooo....           ",
"       ....oooooo....           ",
"        ....oooo....            ",
"        ....oooo....            ",
"        ............            ",
"        ............            ",
"         ....  ....             ",
"         ....  ....             ",
"        ....    ....            ",
"       ....      ....           ",
"       ...        ...           ",
"       ...        ...           ",
"       ...        ...           ",
"        ..        ..            ",
"         ..      ..             ",
"          ........              ",
"          ........              ",
"           ......               ",
"            ....                ",
"             ..                 ",
"                                ",
"                                ",
"                                "
};
